<?xml version="1.0" standalone="no"?>
<!DOCTYPE svg PUBLIC "-//W3C//DTD SVG 20010904//EN"
 "http://www.w3.org/TR/2001/REC-SVG-20010904/DTD/svg10.dtd">
<svg version="1.0" xmlns="http://www.w3.org/2000/svg"
 width="512.000000pt" height="512.000000pt" viewBox="0 0 512.000000 512.000000"
 preserveAspectRatio="xMidYMid meet">

<g transform="translate(0.000000,512.000000) scale(0.100000,-0.100000)"
fill="#000000" stroke="none">
<path d="M915 3961 c-51 -23 -101 -80 -114 -129 -13 -46 -2 -90 34 -142 30
-43 1667 -1669 1699 -1687 29 -17 121 -16 154 1 15 8 401 390 859 848 628 629
833 840 838 863 4 17 8 35 10 42 2 7 -2 34 -10 62 -29 94 -132 157 -217 132
-47 -15 -260 -215 -753 -711 -154 -155 -401 -399 -548 -542 l-268 -262 -757
757 c-530 529 -768 761 -794 772 -49 20 -84 19 -133 -4z"/>
<path d="M940 3068 c-116 -33 -180 -167 -122 -259 11 -19 389 -402 839 -851
l818 -818 76 -16 c140 -31 50 -106 977 819 496 495 831 838 844 861 42 81 0
183 -95 231 -55 27 -90 31 -134 15 -16 -6 -361 -344 -785 -768 l-758 -757
-767 767 c-662 661 -774 768 -808 777 -22 6 -42 11 -45 10 -3 0 -21 -5 -40
-11z"/>
</g>
</svg>
