<?xml version="1.0" standalone="no"?>
<!DOCTYPE svg PUBLIC "-//W3C//DTD SVG 20010904//EN"
 "http://www.w3.org/TR/2001/REC-SVG-20010904/DTD/svg10.dtd">
<svg version="1.0" xmlns="http://www.w3.org/2000/svg"
 width="512.000000pt" height="512.000000pt" viewBox="0 0 512.000000 512.000000"
 preserveAspectRatio="xMidYMid meet">

<g transform="translate(0.000000,512.000000) scale(0.100000,-0.100000)"
fill="#000000" stroke="none">
<path d="M1933 5104 c-17 -9 -69 -50 -114 -92 -297 -276 -496 -618 -581 -999
-19 -85 -22 -128 -23 -333 0 -225 1 -240 28 -344 51 -200 132 -378 266 -582
157 -241 290 -392 766 -874 473 -479 596 -619 714 -817 99 -167 147 -335 137
-478 -9 -124 -44 -222 -126 -351 -37 -58 -39 -108 -7 -154 50 -75 123 -98 194
-61 54 27 197 163 291 276 311 372 459 800 430 1245 -17 277 -122 559 -316
851 -175 263 -298 404 -792 904 -476 482 -618 651 -718 850 -72 144 -87 203
-87 350 0 161 22 238 102 357 61 92 67 129 30 192 -39 69 -123 95 -194 60z
m-164 -985 c81 -195 235 -416 467 -673 50 -56 228 -241 395 -412 510 -519 695
-748 835 -1025 200 -399 206 -762 20 -1155 -44 -93 -66 -121 -66 -86 0 42 -53
202 -100 300 -85 179 -230 381 -434 607 -50 55 -217 228 -371 385 -320 325
-463 480 -583 630 -448 560 -543 1046 -306 1558 19 43 42 88 51 101 15 24 16
22 38 -66 13 -49 37 -123 54 -164z"/>
<path d="M2844 4866 c-40 -18 -88 -76 -123 -151 -76 -162 -77 -341 -2 -501 75
-160 195 -291 541 -589 451 -388 561 -535 594 -787 8 -67 19 -107 32 -125 66
-88 192 -79 249 18 45 76 11 280 -75 454 -97 199 -257 375 -600 665 -487 411
-576 566 -445 778 27 44 35 68 35 103 0 106 -108 177 -206 135z"/>
<path d="M1054 2456 c-74 -32 -100 -106 -85 -235 37 -303 201 -528 696 -951
320 -273 436 -404 477 -534 29 -91 18 -156 -44 -255 -53 -85 -30 -179 53 -222
49 -25 107 -22 148 8 38 28 104 130 124 193 10 30 23 93 29 140 14 106 -4 207
-56 317 -81 170 -184 280 -546 587 -306 259 -453 419 -525 571 -37 79 -50 130
-60 228 -9 79 -34 124 -85 149 -41 21 -83 22 -126 4z"/>
</g>
</svg>
