<?xml version="1.0" standalone="no"?>
<!DOCTYPE svg PUBLIC "-//W3C//DTD SVG 20010904//EN"
 "http://www.w3.org/TR/2001/REC-SVG-20010904/DTD/svg10.dtd">
<svg version="1.0" xmlns="http://www.w3.org/2000/svg"
 width="512.000000pt" height="512.000000pt" viewBox="0 0 512.000000 512.000000"
 preserveAspectRatio="xMidYMid meet">

<g transform="translate(0.000000,512.000000) scale(0.100000,-0.100000)"
fill="#000000" stroke="none">
<path d="M2630 4385 c-86 -14 -202 -51 -275 -88 -227 -114 -404 -345 -489
-639 -30 -104 -56 -271 -56 -361 l0 -66 -42 -11 c-459 -121 -896 -372 -1144
-658 -401 -465 -418 -967 -43 -1328 158 -152 346 -247 614 -313 470 -114 1030
-50 1530 175 l121 54 113 -75 c336 -224 653 -320 946 -285 411 49 702 323 819
772 37 144 49 279 43 478 -6 197 -22 307 -72 495 -173 662 -577 1241 -1113
1597 -305 203 -669 300 -952 253z m336 -110 c538 -94 1104 -584 1428 -1236
301 -605 357 -1241 147 -1671 -149 -307 -380 -461 -711 -475 -209 -9 -355 25
-575 132 -448 218 -817 606 -1075 1130 -81 163 -167 381 -156 392 15 15 246
44 391 50 l171 6 82 -165 c138 -277 301 -508 502 -709 449 -451 923 -566 1200
-289 78 78 129 175 167 319 22 83 26 118 26 256 1 178 -14 287 -64 475 -218
821 -895 1574 -1461 1626 -171 15 -308 -33 -423 -150 -129 -131 -183 -278
-192 -528 l-6 -148 -96 0 c-89 0 -300 -20 -380 -36 l-33 -7 7 84 c13 165 67
375 127 494 64 127 180 259 295 335 169 112 402 154 629 115z m179 -281 c81
-21 243 -100 337 -165 457 -319 836 -924 955 -1524 25 -129 25 -422 0 -520
-28 -106 -91 -227 -143 -275 -71 -65 -162 -103 -261 -108 l-83 -5 68 70 c148
150 224 399 208 676 -14 229 -80 469 -195 704 -224 456 -574 794 -951 919 -78
26 -97 28 -235 28 -131 1 -157 -2 -203 -21 -62 -25 -62 -22 -6 63 60 90 151
152 257 174 53 11 173 3 252 -16z m-78 -336 c303 -104 596 -371 805 -733 157
-272 235 -527 245 -801 8 -219 -25 -376 -106 -501 -58 -89 -173 -183 -224
-183 -36 0 -326 161 -327 181 0 3 21 32 46 65 174 223 266 514 235 739 -26
188 -103 339 -245 481 -176 177 -403 290 -701 349 -66 13 -153 27 -192 30
l-72 7 -7 36 c-8 41 14 262 27 278 16 19 105 63 160 79 91 25 234 15 356 -27z
m-476 -478 c608 -59 1026 -383 1047 -812 7 -147 -23 -278 -100 -433 -37 -74
-140 -229 -161 -242 -5 -3 -23 8 -39 25 l-30 30 31 46 c65 94 111 231 111 327
-1 272 -227 476 -618 559 -143 31 -415 38 -592 16 -523 -66 -991 -275 -1289
-577 -189 -193 -268 -413 -216 -605 37 -136 151 -261 309 -338 164 -81 322
-115 571 -123 322 -11 679 59 992 193 l85 37 26 -20 c14 -10 27 -24 29 -29 2
-6 -45 -31 -104 -56 -535 -226 -1090 -266 -1563 -113 -189 62 -310 135 -441
265 -150 149 -209 277 -217 470 -11 286 105 530 377 793 315 304 820 530 1311
586 108 12 361 13 481 1z m279 -620 c122 -31 193 -64 209 -96 20 -40 26 -171
11 -236 -17 -71 -60 -169 -71 -162 -23 14 -176 261 -240 386 l-71 140 44 -7
c23 -4 77 -15 118 -25z m-916 -145 c84 -243 281 -608 423 -782 19 -24 32 -47
28 -53 -10 -16 -243 -87 -360 -110 -63 -12 -172 -24 -255 -27 -402 -16 -715
116 -836 351 -36 71 -37 75 -25 115 8 30 36 67 89 123 136 142 339 280 544
370 99 43 312 117 339 118 12 0 27 -29 53 -105z m1352 -141 c49 -105 51 -195
6 -310 -22 -54 -73 -144 -83 -144 -3 0 -35 33 -71 74 l-65 74 44 88 c47 97 72
195 73 289 l1 60 36 -40 c19 -22 46 -63 59 -91z m-2416 -576 c100 -174 340
-309 622 -349 118 -17 363 -14 483 5 125 21 297 66 404 107 l83 31 64 -63 c35
-35 64 -66 64 -69 0 -3 -38 -21 -85 -39 -210 -82 -405 -132 -612 -156 -587
-69 -1052 114 -1089 427 -6 53 11 168 24 168 4 0 23 -28 42 -62z"/>
<path d="M1239 4346 c-136 -55 -214 -155 -226 -286 l-6 -57 -56 -6 c-182 -19
-321 -191 -309 -381 11 -163 107 -278 272 -322 78 -22 229 -28 351 -15 120 13
347 56 375 71 39 21 92 335 91 540 0 229 -52 353 -182 432 -82 51 -220 62
-310 24z m200 -92 c176 -52 227 -262 160 -664 -12 -69 -25 -132 -30 -141 -18
-34 -303 -74 -474 -66 -206 9 -293 52 -335 165 -48 126 4 261 125 325 31 16
59 21 123 22 47 1 87 6 94 13 6 6 10 38 9 77 -2 89 15 139 69 197 33 36 60 55
100 68 68 24 92 24 159 4z"/>
<path d="M213 2368 c-39 -62 -100 -204 -120 -280 -20 -76 -11 -98 37 -98 36 0
45 13 71 96 12 38 43 113 70 166 27 54 49 104 49 111 0 20 -33 47 -58 47 -15
0 -31 -14 -49 -42z"/>
<path d="M4940 2342 l-23 -19 19 -114 c15 -91 19 -165 19 -364 -1 -255 -10
-351 -50 -481 -21 -69 -19 -91 10 -110 57 -37 91 32 131 271 39 226 10 784
-42 822 -24 18 -38 16 -64 -5z"/>
<path d="M60 1719 c-14 -25 2 -130 32 -224 26 -80 96 -211 151 -282 140 -183
376 -347 619 -434 65 -23 67 -23 87 -5 23 21 28 58 9 74 -7 6 -48 24 -91 41
-182 72 -304 149 -430 271 -148 142 -254 328 -273 482 -3 29 -13 63 -20 76
-19 29 -69 30 -84 1z"/>
<path d="M4788 1053 c-8 -10 -34 -47 -58 -83 -24 -36 -65 -90 -92 -121 -26
-31 -48 -66 -48 -77 0 -22 34 -52 58 -52 28 0 165 170 213 263 19 36 19 40 4
63 -18 28 -55 32 -77 7z"/>
</g>
</svg>
