<?xml version="1.0" standalone="no"?>
<!DOCTYPE svg PUBLIC "-//W3C//DTD SVG 20010904//EN"
 "http://www.w3.org/TR/2001/REC-SVG-20010904/DTD/svg10.dtd">
<svg version="1.0" xmlns="http://www.w3.org/2000/svg"
 width="512.000000pt" height="512.000000pt" viewBox="0 0 512.000000 512.000000"
 preserveAspectRatio="xMidYMid meet">

<g transform="translate(0.000000,512.000000) scale(0.100000,-0.100000)"
fill="#000000" stroke="none">
<path d="M1165 4949 c-27 -6 -86 -28 -131 -49 -152 -73 -274 -232 -303 -394
-7 -39 -11 -335 -11 -857 0 -761 -1 -798 -18 -803 -51 -16 -85 -78 -283 -506
-110 -239 -212 -473 -227 -520 l-27 -85 -3 -788 -3 -787 81 0 80 0 0 745 c0
643 2 756 16 823 17 82 33 120 244 580 l135 292 5 -597 c6 -593 6 -598 29
-660 44 -120 93 -164 149 -132 19 10 82 109 214 338 102 177 194 332 205 343
69 76 201 59 253 -34 43 -76 35 -95 -178 -465 -106 -182 -192 -341 -192 -353
0 -12 43 -93 95 -181 148 -245 139 -216 143 -476 l4 -223 80 0 80 0 -4 232
c-5 272 -9 290 -115 465 l-62 102 787 3 787 3 66 26 c134 52 216 117 288 229
77 119 84 152 89 443 l4 257 -80 0 -80 0 -4 -248 -3 -248 -37 -76 c-45 -91
-103 -147 -196 -191 l-67 -32 -779 -3 -778 -3 19 33 c10 18 68 118 129 223
l109 189 6 -55 c8 -73 33 -122 85 -168 62 -55 95 -61 314 -61 231 0 257 6 325
75 102 101 102 229 0 330 -68 69 -94 75 -325 75 -217 0 -250 -6 -311 -58 -38
-33 -41 -34 -33 -11 5 13 9 58 9 99 -1 88 -23 145 -81 210 -84 93 -227 125
-348 80 -94 -36 -133 -84 -291 -360 l-140 -245 -3 300 c-1 165 -1 845 0 1510
l3 1210 32 67 c44 93 100 151 191 196 l76 37 896 0 896 0 76 -37 c69 -35 138
-93 165 -141 8 -16 15 -14 76 20 36 21 67 42 67 47 0 19 -84 116 -133 154 -59
45 -96 65 -176 96 -56 21 -63 21 -946 22 -531 1 -910 -2 -940 -7z m1130 -3374
c16 -15 25 -36 25 -55 0 -19 -9 -40 -25 -55 -24 -25 -26 -25 -215 -25 -189 0
-191 0 -215 25 -16 15 -25 36 -25 55 0 19 9 40 25 55 24 25 26 25 215 25 189
0 191 0 215 -25z"/>
<path d="M1440 4560 l0 -80 80 0 80 0 0 80 0 80 -80 0 -80 0 0 -80z"/>
<path d="M1760 4560 l0 -80 320 0 320 0 0 80 0 80 -320 0 -320 0 0 -80z"/>
<path d="M3480 4546 c-280 -50 -514 -169 -705 -361 -190 -190 -320 -449 -362
-719 -28 -184 -6 -423 56 -600 16 -46 18 -63 9 -80 -6 -11 -61 -106 -123 -211
-164 -278 -162 -271 -124 -319 28 -35 42 -34 325 19 131 25 248 45 258 45 10
0 37 -15 60 -33 442 -359 1061 -381 1537 -56 101 70 264 234 330 334 431 652
199 1518 -500 1865 -85 42 -202 83 -306 106 -96 21 -358 27 -455 10z m375
-161 c285 -46 545 -200 713 -424 267 -355 305 -818 98 -1207 -108 -203 -258
-352 -461 -461 -413 -219 -893 -163 -1268 149 -32 26 -68 48 -80 48 -12 0
-107 -16 -211 -35 -104 -20 -190 -34 -191 -33 -2 2 44 82 101 178 118 197 115
182 66 320 -158 449 -2 963 381 1251 245 184 555 262 852 214z"/>
<path d="M3605 4151 c-145 -38 -234 -151 -243 -308 l-5 -83 -134 0 c-129 0
-135 -1 -158 -25 l-25 -24 0 -512 c0 -372 3 -523 12 -553 16 -55 99 -138 154
-154 58 -17 890 -17 948 0 55 16 138 99 154 154 9 30 12 181 12 553 l0 512
-25 24 c-23 24 -29 25 -158 25 l-134 0 -5 84 c-9 136 -71 233 -187 287 -48 22
-157 33 -206 20z m163 -178 c51 -38 66 -69 70 -143 l4 -70 -161 0 -161 0 0 54
c0 87 30 143 95 172 40 19 119 12 153 -13z m-408 -453 l0 -80 80 0 80 0 0 80
0 80 160 0 160 0 0 -80 0 -80 80 0 80 0 0 80 0 80 80 0 80 0 0 -320 0 -320
-480 0 -480 0 0 320 0 320 80 0 80 0 0 -80z m800 -775 c0 -46 -4 -60 -25 -80
l-24 -25 -431 0 -431 0 -24 25 c-21 20 -25 34 -25 80 l0 55 480 0 480 0 0 -55z"/>
<path d="M1718 3833 l-57 -56 -60 27 c-199 89 -437 -2 -529 -202 -23 -50 -26
-71 -26 -162 -1 -99 1 -109 31 -171 40 -80 120 -159 200 -197 51 -24 70 -27
158 -27 80 1 111 5 157 24 84 33 160 106 205 199 36 72 38 81 38 171 0 84 -4
104 -29 159 l-29 63 56 57 c32 32 57 62 57 68 0 13 -92 104 -105 104 -6 0 -36
-26 -67 -57z m-208 -164 l32 -12 -118 -118 -119 -119 58 -57 57 -58 119 119
118 118 12 -32 c49 -142 -75 -310 -229 -310 -63 0 -114 23 -165 75 -102 101
-102 229 0 330 68 69 153 92 235 64z"/>
<path d="M2000 3600 l0 -80 160 0 160 0 0 80 0 80 -160 0 -160 0 0 -80z"/>
<path d="M2000 3280 l0 -80 160 0 160 0 0 80 0 80 -160 0 -160 0 0 -80z"/>
</g>
</svg>
